# Blender v2.79 (sub 0) OBJ File: ''
# www.blender.org
mtllib door_c.mtl
o door_c
# Right,Left,Up,Down,Back,Front
# RDF
v -0.5 3.5 -0.5
#RUF
v -0.5 -0.5 -0.5
#RDB
v -0.5 -0.5 -0.375
#RUB
v -0.5 3.5 -0.375
#LDF
v 1.5 -0.5 -0.375
#LUF
v 1.5 3.5 -0.375
#LDB
v 1.5 -0.5 -0.5
#LUB
v 1.5 3.5 -0.5
vt 0.894737 1.000000
vt 0.894737 0.000000
vt 0.842105 0.000000
vt 0.842105 1.000000
vt 0.421052 1.000000
vt 0.421052 0.000000
vt 0.000001 0.000000
vt 0.000001 1.000000
vt 0.894737 1.000000
vt 0.894737 0.000000
vt 0.947368 0.000000
vt 0.947368 1.000000
vt 0.842105 1.000000
vt 0.842105 0.000000
vt 0.421052 0.000000
vt 0.421052 1.000000
vt 0.947368 0.000000
vt 0.947368 0.500000
vt 1.000000 0.500000
vt 1.000000 0.000000
vt 1.000000 1.000000
vt 1.000000 0.500000
vt 0.947368 0.500000
vt 0.947368 1.000000
vn -1.0000 -0.0000 0.0000
vn 0.0000 -0.0000 1.0000
vn 1.0000 0.0000 0.0000
vn 0.0000 0.0000 -1.0000
vn 0.0000 -1.0000 0.0000
vn 0.0000 1.0000 0.0000
usemtl None.009
s 1
f 1/1/1 2/2/1 3/3/1 4/4/1
f 4/5/2 3/6/2 5/7/2 6/8/2
f 6/9/3 5/10/3 7/11/3 8/12/3
f 8/13/4 7/14/4 2/15/4 1/16/4
f 2/17/5 7/18/5 5/19/5 3/20/5
f 8/21/6 1/22/6 4/23/6 6/24/6
